<svg width="77" height="23" viewBox="0 0 77 23" fill="none" xmlns="http://www.w3.org/2000/svg">
<path d="M0.699881 19.9999C24.7999 11.9999 50.1999 11.5999 75.2999 12.3999C75.9999 12.3999 76.0999 11.3999 75.4999 11.1999C65.1999 7.79993 54.7999 4.39993 44.4999 0.999928C44.3999 1.39993 44.2999 1.79993 44.1999 2.09993C55.0999 3.79993 64.2999 9.99993 75.2999 11.7999C75.3999 11.3999 75.3999 10.9999 75.4999 10.5999C70.5999 11.1999 65.2999 11.1999 60.5999 12.8999C56.1999 14.5999 52.7999 18.0999 49.5999 21.3999C49.0999 21.9999 49.8999 22.7999 50.3999 22.1999C53.5999 18.7999 56.9999 15.1999 61.5999 13.6999C65.9999 12.2999 70.7999 12.1999 75.3999 11.6999C75.9999 11.5999 76.2999 10.5999 75.5999 10.4999C64.6999 8.99993 55.4999 2.69993 44.4999 0.999928C43.7999 0.899928 43.3999 1.89993 44.1999 2.09993C54.4999 5.59993 64.7999 8.99993 75.0999 12.3999C75.1999 11.9999 75.1999 11.5999 75.2999 11.1999C50.0999 10.3999 24.5999 10.7999 0.399881 18.8999C-0.300119 19.0999 -0.000119388 20.2999 0.699881 19.9999Z" fill="#42595E"/>
</svg>
