<svg width="51" height="24" viewBox="0 0 51 24" fill="none" xmlns="http://www.w3.org/2000/svg">
<path d="M1.40004 15.592C17.1 10.892 33.3 9.79204 49.5 12.292C50.1 12.392 50.5 11.792 50.1 11.292C46.6 7.49204 42.9 3.99204 39 0.792037C38.8 1.09204 38.5 1.39205 38.3 1.69205C40.6 2.99205 42.6 5.09205 44.5 6.99205C45.6 8.09205 48.8 10.492 49.1 11.992C48.9 11.292 49.2 11.592 48.3 12.292C47.2 12.992 46.3 14.192 45.4 14.992C42.7 17.592 40 20.192 37.4 22.892C36.9 23.492 37.7 24.292 38.2 23.692C42 19.692 46.1 15.892 50.1 12.192C50.3 11.992 50.3 11.592 50.1 11.392C46.8 7.69204 43.3 3.19205 38.9 0.692046C38.3 0.392046 37.6 1.19204 38.2 1.59204C42.2 4.79204 45.9 8.29204 49.3 12.092C49.5 11.792 49.7 11.392 49.9 11.092C33.5 8.49204 17.1 9.69204 1.20003 14.392C0.400027 14.692 0.700039 15.892 1.40004 15.592Z" fill="#42595E"/>
</svg>
