<svg width="58" height="21" viewBox="0 0 58 21" fill="none" xmlns="http://www.w3.org/2000/svg">
<path d="M1.50001 10.892C19.8 12.592 38.2 11.692 56.6 11.792C56.5 11.392 56.5 10.992 56.4 10.592C48.7 13.392 40.9 16.192 33.2 18.992C32.5 19.292 32.8 20.292 33.5 20.092C41.8 18.792 48.5 13.492 56.8 12.192C57.4 12.092 57.4 11.192 56.8 11.092C53.6 10.492 50.1 10.192 47.1 8.992C43.4 7.492 41 3.99198 38.8 0.791984C38.4 0.191984 37.3 0.79199 37.8 1.39199C39.9 4.49199 42.2 7.79199 45.6 9.59199C48.9 11.292 53 11.592 56.6 12.292C56.6 11.892 56.6 11.492 56.6 11.192C48.3 12.492 41.6 17.792 33.3 19.092C33.4 19.492 33.5 19.892 33.6 20.192C41.3 17.392 49.1 14.592 56.8 11.792C57.4 11.592 57.3 10.592 56.6 10.592C38.2 10.592 19.8 11.392 1.50001 9.69199C0.800006 9.69199 0.800006 10.892 1.50001 10.892Z" fill="#42595E"/>
</svg>
