<svg width="84" height="85" viewBox="0 0 84 85" fill="none" xmlns="http://www.w3.org/2000/svg">
<path d="M33.5288 56.3625C43.1288 66.6625 71.1288 73.0625 80.5288 47.4625C89.9288 21.8625 75.5288 -4.53752 48.4288 1.86248C21.3288 8.26248 20.6288 42.6625 33.5288 56.3625Z" fill="#D7D3D2"/>
<path d="M52.1529 35.984C67.8489 28.568 68.2809 18.488 57.4089 18.488C50.2089 18.488 38.1849 23.816 34.8729 32.816L36.6729 33.464C39.6969 25.184 50.6409 20.36 57.4089 20.36C68.4249 20.36 62.9529 29.864 48.1929 35.624L48.5529 36.488V37.64C48.8409 37.64 71.8809 37.28 62.1609 57.44C52.7289 77.024 5.20891 78.968 26.8809 52.688L25.4409 51.536C0.888905 81.2 53.6649 79.256 63.8169 58.304C72.2409 40.736 58.9929 36.848 52.1529 35.984Z" fill="#46585D"/>
</svg>
